<svg id="visual" viewBox="0 0 900 675" width="900" height="675" xmlns="http://www.w3.org/2000/svg" xmlns:xlink="http://www.w3.org/1999/xlink" version="1.1"><rect x="0" y="0" width="900" height="675" fill="#f2f8ff"></rect><defs><linearGradient id="grad1_0" x1="25%" y1="100%" x2="100%" y2="0%"><stop offset="23.333333333333336%" stop-color="#f2f8ff" stop-opacity="1"></stop><stop offset="76.66666666666666%" stop-color="#f2f8ff" stop-opacity="1"></stop></linearGradient></defs><defs><linearGradient id="grad2_0" x1="0%" y1="100%" x2="75%" y2="0%"><stop offset="23.333333333333336%" stop-color="#f2f8ff" stop-opacity="1"></stop><stop offset="76.66666666666666%" stop-color="#f2f8ff" stop-opacity="1"></stop></linearGradient></defs><g transform="translate(900, 675)"><path d="M-309.4 0C-303.4 -57.7 -297.4 -115.5 -267.9 -154.7C-238.5 -193.9 -185.6 -214.6 -137 -237.3C-88.4 -260 -44.2 -284.7 0 -309.4L0 0Z" fill="#fe8b00"></path></g><g transform="translate(0, 0)"><path d="M309.4 0C262.5 31.4 215.6 62.8 195.7 113C175.8 163.2 182.8 232.1 154.7 267.9C126.6 303.8 63.3 306.6 0 309.4L0 0Z" fill="#fe8b00"></path></g></svg>